# xmcd CD database file
#
# Track frame offsets:
#	150
#	33276
#	61840
#	99128
#	121629
#	142430
#	175178
#	198369
#	230624
#
# Disc length: 3476 seconds
#
# Revision: 0
# Processed by: cddbd v1.5.2PL0 Copyright (c) Steve Scherf et al.
# Submitted via: CDex 1.70beta2
#
DISCID=720d9209
DTITLE=Jovino Santos Neto Quinteto - Corrente
DYEAR=2011
DGENRE=Jazz
TTITLE0=Corrente
TTITLE1=Vivendo no Presente
TTITLE2=Two Friends, True Friends
TTITLE3=Matraca
TTITLE4=Outras Praias
TTITLE5=Zagaia
TTITLE6=Pra Casa
TTITLE7=Sea and Sky
TTITLE8=A Fonte
EXTD=YEAR: 2011
EXTT0=
EXTT1=
EXTT2=
EXTT3=
EXTT4=
EXTT5=
EXTT6=
EXTT7=
EXTT8=
PLAYORDER=
